<svg xmlns="http://www.w3.org/2000/svg" viewBox="0 0 64 64" fill="none">
  <rect width="64" height="64" rx="16" fill="#7C3AED"/>
  <path d="M20 16h24v14c0 6.627-5.373 12-12 12s-12-5.373-12-12V16Z" fill="#fff"/>
  <path d="M20 21h-3a5 5 0 0 0 0 10h3M44 21h3a5 5 0 0 1 0 10h-3" stroke="#fff" stroke-width="4" stroke-linecap="round" stroke-linejoin="round"/>
  <path d="M27 44v4.5c0 1.3-1.09 2.27-2.16 2.7C22.304 52.212 20 55.046 20 58h24c0-2.954-2.304-5.788-4.84-6.8-1.07-.43-2.16-1.4-2.16-2.7V44" stroke="#fff" stroke-width="4" stroke-linecap="round" stroke-linejoin="round"/>
</svg>
