<svg xmlns="http://www.w3.org/2000/svg" viewBox="0 0 64 64" fill="none">
  <rect width="64" height="64" rx="16" fill="#ffffff"/>
  <rect x="7" y="27" width="19" height="23" rx="4" fill="#1e72c0"/>
  <rect x="22" y="14" width="20" height="36" rx="5" fill="#fcca00"/>
  <rect x="38" y="31" width="19" height="19" rx="4" fill="#1e72c0"/>
  <path d="M16 37h3v12h-3v-8.2l-2.1 1.4-1.3-2.1L16 37Z" fill="#ffffff"/>
  <path d="M30.3 25.5c4.4 0 6.7 2.1 6.7 5.2 0 2.4-1.4 4.1-4.5 6.8l-1.9 1.6h6.6V43H25.8v-3.1l4.2-3.6c2.4-2.1 3.1-3.2 3.1-4.5 0-1.4-.9-2.4-2.7-2.4-1.6 0-2.8.8-4 2.3l-2.4-2.5c1.5-2.2 3.7-3.7 6.3-3.7Z" fill="#ffffff"/>
  <path d="M47.4 37.1c3.3 0 5.3 1.6 5.3 4 0 1.6-.9 2.8-2.4 3.3 1.8.5 2.9 1.8 2.9 3.7 0 2.7-2.3 4.5-5.8 4.5-2.6 0-4.8-.9-6.1-2.5l2-2.6c1 .9 2.2 1.5 3.8 1.5 1.5 0 2.3-.6 2.3-1.6 0-1.1-.9-1.6-2.7-1.6h-1.5v-3.1h1.5c1.5 0 2.4-.5 2.4-1.5 0-.9-.8-1.4-2.1-1.4-1.2 0-2.3.4-3.3 1.3l-1.9-2.5c1.4-1 3.2-1.5 5.6-1.5Z" fill="#ffffff"/>
</svg>
